<svg width="12" height="13" viewBox="0 0 12 13" fill="none" xmlns="http://www.w3.org/2000/svg">
<path d="M3.2917 12.9382C2.78038 12.9386 2.28045 12.7873 1.85518 12.5036C1.42991 12.2199 1.09843 11.8165 0.902704 11.3444C0.706978 10.8723 0.655805 10.3528 0.755664 9.8516C0.855523 9.35043 1.10192 8.89014 1.46367 8.529L5.11972 4.87514C5.28133 4.71364 5.50051 4.62292 5.72906 4.62292C5.9576 4.62292 6.17678 4.71366 6.33838 4.87517C6.49998 5.03668 6.59077 5.25573 6.59077 5.48413C6.59078 5.71253 6.49999 5.93159 6.33839 6.0931L2.68236 9.74694C2.6017 9.82677 2.53762 9.92173 2.49379 10.0264C2.44997 10.131 2.42726 10.2433 2.42699 10.3568C2.42671 10.4702 2.44886 10.5826 2.49217 10.6875C2.53549 10.7923 2.5991 10.8876 2.67937 10.9678C2.75964 11.0481 2.85497 11.1116 2.9599 11.1549C3.06483 11.1982 3.17728 11.2204 3.29079 11.2201C3.40431 11.2198 3.51665 11.1971 3.62137 11.1533C3.72609 11.1095 3.82112 11.0455 3.901 10.9649L8.77576 6.0931C9.01589 5.85323 9.20639 5.56842 9.33636 5.25495C9.46633 4.94148 9.53322 4.60549 9.53322 4.26618C9.53322 3.92686 9.46633 3.59087 9.33636 3.2774C9.20639 2.96393 9.01589 2.67913 8.77576 2.43926C8.28339 1.96917 7.62867 1.70685 6.94774 1.70685C6.26681 1.70685 5.61208 1.96917 5.11972 2.43926L1.46367 6.0931C1.38365 6.17307 1.28866 6.23651 1.18411 6.27979C1.07955 6.32308 0.967495 6.34535 0.854329 6.34535C0.741162 6.34536 0.629104 6.32308 0.524551 6.2798C0.419999 6.23652 0.325001 6.17308 0.24498 6.09311C0.16496 6.01313 0.101485 5.91819 0.0581794 5.8137C0.0148738 5.70921 -0.00741419 5.59722 -0.00741196 5.48412C-0.00740973 5.37102 0.0148826 5.25903 0.0581923 5.15454C0.101502 5.05005 0.164981 4.95511 0.245004 4.87514L3.901 1.2213C5.53212 -0.407101 8.37008 -0.407101 9.99442 1.2213C10.3947 1.62109 10.7121 2.09576 10.9288 2.61821C11.1454 3.14066 11.2569 3.70065 11.2569 4.26618C11.2569 4.8317 11.1454 5.39169 10.9288 5.91414C10.7121 6.43659 10.3947 6.91126 9.99442 7.31105L5.11972 12.1828C4.87973 12.4228 4.59472 12.613 4.28103 12.7426C3.96734 12.8722 3.63114 12.9387 3.2917 12.9382Z" fill="#FE3C72"/>
</svg>
