<svg width="14" height="15" viewBox="0 0 14 15" fill="none" xmlns="http://www.w3.org/2000/svg">
<path d="M7.13037 10.1161L7.13079 10.1161C7.54012 10.1166 7.94442 10.0209 8.3132 9.8361C8.682 9.65125 9.00583 9.38192 9.25993 9.04806L9.26013 9.0478C9.31195 8.98 9.37645 8.92308 9.45013 8.88053C9.52383 8.83798 9.60518 8.8107 9.68953 8.80048C9.77388 8.79026 9.85932 8.79732 9.9409 8.82121L9.89538 8.9767L9.9409 8.82121C10.0225 8.84509 10.0984 8.88526 10.1644 8.93915C10.2303 8.99303 10.285 9.05954 10.3257 9.13471C10.3663 9.20986 10.392 9.2923 10.4017 9.37734C10.4113 9.46237 10.4047 9.54856 10.3821 9.63106C10.3595 9.71347 10.3214 9.79079 10.2696 9.85853M7.13037 10.1161L4.11722 9.75638L3.98822 9.85441C3.98825 9.85445 3.98828 9.85449 3.98831 9.85453C4.36154 10.3456 4.83825 10.743 5.38268 11.0162C5.92713 11.2895 6.52485 11.4313 7.13058 11.4307M7.13037 10.1161C6.72059 10.1166 6.31585 10.0208 5.94673 9.8356C5.59222 9.65775 5.2793 9.40185 5.02995 9.08564L4.9993 9.0454C4.9476 8.97749 4.8832 8.92043 4.80958 8.87774C4.73595 8.83504 4.65464 8.8076 4.5703 8.79722L4.5505 8.95802L7.13037 10.1161ZM10.2696 9.85853L10.1408 9.76035M10.2696 9.85853C10.2696 9.8586 10.2695 9.85867 10.2695 9.85873L10.1408 9.76035M10.2696 9.85853C9.89637 10.3485 9.41998 10.7449 8.87613 11.0174C8.33231 11.2899 7.73543 11.4313 7.13058 11.4307M10.1408 9.76035C9.78223 10.231 9.325 10.6113 8.80355 10.8725C8.2821 11.1338 7.71006 11.2693 7.13058 11.2687M10.1408 9.76035L7.13058 11.2687M7.13058 11.4307C7.13064 11.4307 7.13069 11.4307 7.13075 11.4307L7.13058 11.2687M7.13058 11.4307C7.13052 11.4307 7.13047 11.4307 7.13041 11.4307L7.13058 11.2687M7.13058 0.539155C10.754 0.539155 13.6822 3.57401 13.6822 7.30635C13.6822 11.0381 10.7533 14.0722 7.13061 14.0722L7.13058 0.539155ZM7.13058 0.539155C3.50717 0.539155 0.578977 3.57401 0.578977 7.30635C0.578977 11.038 3.50717 14.0729 7.13058 14.0722V0.539155ZM8.3858 9.98094C8.77702 9.78485 9.12001 9.49941 9.38885 9.14619L7.13058 10.2781C7.56536 10.2786 7.99458 10.177 8.3858 9.98094ZM9.95521 6.36783L9.80524 6.30653L9.95521 6.36783C10.0048 6.24661 10.0302 6.11653 10.0302 5.98525C10.0302 5.85397 10.0048 5.72389 9.95521 5.60267L9.80524 5.66397L9.95521 5.60267C9.90566 5.48144 9.83295 5.37135 9.74111 5.27907C9.64927 5.18677 9.54014 5.11415 9.42005 5.06579C9.29995 5.01742 9.17149 4.99437 9.04234 4.99815C8.79068 5.00551 8.55286 5.11404 8.37905 5.29887C8.2054 5.48353 8.1091 5.72985 8.1091 5.98525C8.1091 6.24065 8.2054 6.48697 8.37905 6.67163C8.55286 6.85646 8.79068 6.96499 9.04234 6.97235C9.17149 6.97613 9.29995 6.95308 9.42005 6.90471C9.54014 6.85635 9.64927 6.78373 9.74111 6.69143C9.83295 6.59915 9.90566 6.48906 9.95521 6.36783ZM5.09661 2.25096C5.7421 1.98091 6.43279 1.84595 7.12877 1.85376C8.51455 1.86929 9.83961 2.44924 10.8159 3.4695C11.7924 4.48994 12.341 5.86846 12.341 7.30602C12.341 8.74358 11.7924 10.1221 10.8159 11.1425C9.83961 12.1628 8.51455 12.7427 7.12877 12.7583C6.43279 12.7661 5.7421 12.6311 5.09661 12.3611C4.45111 12.091 3.86348 11.6912 3.36786 11.1843C2.87223 10.6775 2.47848 10.0738 2.20966 9.40803C1.94084 8.74225 1.80235 8.02778 1.80235 7.30602C1.80235 6.58426 1.94084 5.86979 2.20966 5.20401C2.47848 4.53823 2.87223 3.93453 3.36786 3.42771C3.86348 2.92089 4.45111 2.52102 5.09661 2.25096ZM5.58707 5.06579C5.46696 5.01742 5.3385 4.99437 5.20935 4.99815C4.95769 5.00551 4.71988 5.11404 4.54607 5.29887C4.37241 5.48353 4.27612 5.72985 4.27612 5.98525C4.27612 6.24065 4.37241 6.48697 4.54606 6.67163C4.71988 6.85646 4.95769 6.96499 5.20935 6.97235C5.3385 6.97613 5.46696 6.95308 5.58707 6.90471C5.70716 6.85635 5.81628 6.78373 5.90813 6.69143C5.99996 6.59915 6.07267 6.48906 6.12222 6.36783C6.17177 6.24661 6.19723 6.11653 6.19723 5.98525C6.19723 5.85397 6.17177 5.72389 6.12222 5.60267C6.07267 5.48144 5.99996 5.37135 5.90813 5.27907C5.81628 5.18677 5.70716 5.11415 5.58707 5.06579Z" fill="black"/>
<path d="M7.13037 10.1161L7.13079 10.1161C7.54012 10.1166 7.94442 10.0209 8.3132 9.8361C8.682 9.65125 9.00583 9.38192 9.25993 9.04806L9.26013 9.0478C9.31195 8.98 9.37645 8.92308 9.45013 8.88053C9.52383 8.83798 9.60518 8.8107 9.68953 8.80048C9.77388 8.79026 9.85932 8.79732 9.9409 8.82121L9.89538 8.9767L9.9409 8.82121C10.0225 8.84509 10.0984 8.88526 10.1644 8.93915C10.2303 8.99303 10.285 9.05954 10.3257 9.13471C10.3663 9.20986 10.392 9.2923 10.4017 9.37734C10.4113 9.46237 10.4047 9.54856 10.3821 9.63106C10.3595 9.71347 10.3214 9.79079 10.2696 9.85853M7.13037 10.1161L4.11722 9.75638L3.98822 9.85441C3.98825 9.85445 3.98828 9.85449 3.98831 9.85453C4.36154 10.3456 4.83825 10.743 5.38268 11.0162C5.92713 11.2895 6.52485 11.4313 7.13058 11.4307M7.13037 10.1161C6.72059 10.1166 6.31585 10.0208 5.94673 9.8356C5.59222 9.65775 5.2793 9.40185 5.02995 9.08564L4.9993 9.0454C4.9476 8.97749 4.8832 8.92043 4.80958 8.87774C4.73595 8.83504 4.65464 8.8076 4.5703 8.79722L4.5505 8.95802L7.13037 10.1161ZM10.2696 9.85853L10.1408 9.76035M10.2696 9.85853C10.2696 9.8586 10.2695 9.85867 10.2695 9.85873L10.1408 9.76035M10.2696 9.85853C9.89637 10.3485 9.41998 10.7449 8.87613 11.0174C8.33231 11.2899 7.73543 11.4313 7.13058 11.4307M10.1408 9.76035C9.78223 10.231 9.325 10.6113 8.80355 10.8725C8.2821 11.1338 7.71006 11.2693 7.13058 11.2687M10.1408 9.76035L7.13058 11.2687M7.13058 11.4307C7.13064 11.4307 7.13069 11.4307 7.13075 11.4307L7.13058 11.2687M7.13058 11.4307C7.13052 11.4307 7.13047 11.4307 7.13041 11.4307L7.13058 11.2687M7.13058 0.539155C10.754 0.539155 13.6822 3.57401 13.6822 7.30635C13.6822 11.0381 10.7533 14.0722 7.13061 14.0722L7.13058 0.539155ZM7.13058 0.539155C3.50717 0.539155 0.578977 3.57401 0.578977 7.30635C0.578977 11.038 3.50717 14.0729 7.13058 14.0722V0.539155ZM8.3858 9.98094C8.77702 9.78485 9.12001 9.49941 9.38885 9.14619L7.13058 10.2781C7.56536 10.2786 7.99458 10.177 8.3858 9.98094ZM9.95521 6.36783L9.80524 6.30653L9.95521 6.36783C10.0048 6.24661 10.0302 6.11653 10.0302 5.98525C10.0302 5.85397 10.0048 5.72389 9.95521 5.60267L9.80524 5.66397L9.95521 5.60267C9.90566 5.48144 9.83295 5.37135 9.74111 5.27907C9.64927 5.18677 9.54014 5.11415 9.42005 5.06579C9.29995 5.01742 9.17149 4.99437 9.04234 4.99815C8.79068 5.00551 8.55286 5.11404 8.37905 5.29887C8.2054 5.48353 8.1091 5.72985 8.1091 5.98525C8.1091 6.24065 8.2054 6.48697 8.37905 6.67163C8.55286 6.85646 8.79068 6.96499 9.04234 6.97235C9.17149 6.97613 9.29995 6.95308 9.42005 6.90471C9.54014 6.85635 9.64927 6.78373 9.74111 6.69143C9.83295 6.59915 9.90566 6.48906 9.95521 6.36783ZM5.09661 2.25096C5.7421 1.98091 6.43279 1.84595 7.12877 1.85376C8.51455 1.86929 9.83961 2.44924 10.8159 3.4695C11.7924 4.48994 12.341 5.86846 12.341 7.30602C12.341 8.74358 11.7924 10.1221 10.8159 11.1425C9.83961 12.1628 8.51455 12.7427 7.12877 12.7583C6.43279 12.7661 5.7421 12.6311 5.09661 12.3611C4.45111 12.091 3.86348 11.6912 3.36786 11.1843C2.87223 10.6775 2.47848 10.0738 2.20966 9.40803C1.94084 8.74225 1.80235 8.02778 1.80235 7.30602C1.80235 6.58426 1.94084 5.86979 2.20966 5.20401C2.47848 4.53823 2.87223 3.93453 3.36786 3.42771C3.86348 2.92089 4.45111 2.52102 5.09661 2.25096ZM5.58707 5.06579C5.46696 5.01742 5.3385 4.99437 5.20935 4.99815C4.95769 5.00551 4.71988 5.11404 4.54607 5.29887C4.37241 5.48353 4.27612 5.72985 4.27612 5.98525C4.27612 6.24065 4.37241 6.48697 4.54606 6.67163C4.71988 6.85646 4.95769 6.96499 5.20935 6.97235C5.3385 6.97613 5.46696 6.95308 5.58707 6.90471C5.70716 6.85635 5.81628 6.78373 5.90813 6.69143C5.99996 6.59915 6.07267 6.48906 6.12222 6.36783C6.17177 6.24661 6.19723 6.11653 6.19723 5.98525C6.19723 5.85397 6.17177 5.72389 6.12222 5.60267C6.07267 5.48144 5.99996 5.37135 5.90813 5.27907C5.81628 5.18677 5.70716 5.11415 5.58707 5.06579Z" fill="#FE3C72"/>
<path d="M7.13037 10.1161L7.13079 10.1161C7.54012 10.1166 7.94442 10.0209 8.3132 9.8361C8.682 9.65125 9.00583 9.38192 9.25993 9.04806L9.26013 9.0478C9.31195 8.98 9.37645 8.92308 9.45013 8.88053C9.52383 8.83798 9.60518 8.8107 9.68953 8.80048C9.77388 8.79026 9.85932 8.79732 9.9409 8.82121L9.89538 8.9767L9.9409 8.82121C10.0225 8.84509 10.0984 8.88526 10.1644 8.93915C10.2303 8.99303 10.285 9.05954 10.3257 9.13471C10.3663 9.20986 10.392 9.2923 10.4017 9.37734C10.4113 9.46237 10.4047 9.54856 10.3821 9.63106C10.3595 9.71347 10.3214 9.79079 10.2696 9.85853M7.13037 10.1161L4.11722 9.75638L3.98822 9.85441C3.98825 9.85445 3.98828 9.85449 3.98831 9.85453C4.36154 10.3456 4.83825 10.743 5.38268 11.0162C5.92713 11.2895 6.52485 11.4313 7.13058 11.4307M7.13037 10.1161C6.72059 10.1166 6.31585 10.0208 5.94673 9.8356C5.59222 9.65775 5.2793 9.40185 5.02995 9.08564L4.9993 9.0454C4.9476 8.97749 4.8832 8.92043 4.80958 8.87774C4.73595 8.83504 4.65464 8.8076 4.5703 8.79722L4.5505 8.95802L7.13037 10.1161ZM10.2696 9.85853L10.1408 9.76035M10.2696 9.85853C10.2696 9.8586 10.2695 9.85867 10.2695 9.85873L10.1408 9.76035M10.2696 9.85853C9.89637 10.3485 9.41998 10.7449 8.87613 11.0174C8.33231 11.2899 7.73543 11.4313 7.13058 11.4307M10.1408 9.76035C9.78223 10.231 9.325 10.6113 8.80355 10.8725C8.2821 11.1338 7.71006 11.2693 7.13058 11.2687M10.1408 9.76035L7.13058 11.2687M7.13058 11.4307C7.13064 11.4307 7.13069 11.4307 7.13075 11.4307L7.13058 11.2687M7.13058 11.4307C7.13052 11.4307 7.13047 11.4307 7.13041 11.4307L7.13058 11.2687M7.13058 0.539155C10.754 0.539155 13.6822 3.57401 13.6822 7.30635C13.6822 11.0381 10.7533 14.0722 7.13061 14.0722L7.13058 0.539155ZM7.13058 0.539155C3.50717 0.539155 0.578977 3.57401 0.578977 7.30635C0.578977 11.038 3.50717 14.0729 7.13058 14.0722V0.539155ZM8.3858 9.98094C8.77702 9.78485 9.12001 9.49941 9.38885 9.14619L7.13058 10.2781C7.56536 10.2786 7.99458 10.177 8.3858 9.98094ZM9.95521 6.36783L9.80524 6.30653L9.95521 6.36783C10.0048 6.24661 10.0302 6.11653 10.0302 5.98525C10.0302 5.85397 10.0048 5.72389 9.95521 5.60267L9.80524 5.66397L9.95521 5.60267C9.90566 5.48144 9.83295 5.37135 9.74111 5.27907C9.64927 5.18677 9.54014 5.11415 9.42005 5.06579C9.29995 5.01742 9.17149 4.99437 9.04234 4.99815C8.79068 5.00551 8.55286 5.11404 8.37905 5.29887C8.2054 5.48353 8.1091 5.72985 8.1091 5.98525C8.1091 6.24065 8.2054 6.48697 8.37905 6.67163C8.55286 6.85646 8.79068 6.96499 9.04234 6.97235C9.17149 6.97613 9.29995 6.95308 9.42005 6.90471C9.54014 6.85635 9.64927 6.78373 9.74111 6.69143C9.83295 6.59915 9.90566 6.48906 9.95521 6.36783ZM5.09661 2.25096C5.7421 1.98091 6.43279 1.84595 7.12877 1.85376C8.51455 1.86929 9.83961 2.44924 10.8159 3.4695C11.7924 4.48994 12.341 5.86846 12.341 7.30602C12.341 8.74358 11.7924 10.1221 10.8159 11.1425C9.83961 12.1628 8.51455 12.7427 7.12877 12.7583C6.43279 12.7661 5.7421 12.6311 5.09661 12.3611C4.45111 12.091 3.86348 11.6912 3.36786 11.1843C2.87223 10.6775 2.47848 10.0738 2.20966 9.40803C1.94084 8.74225 1.80235 8.02778 1.80235 7.30602C1.80235 6.58426 1.94084 5.86979 2.20966 5.20401C2.47848 4.53823 2.87223 3.93453 3.36786 3.42771C3.86348 2.92089 4.45111 2.52102 5.09661 2.25096ZM5.58707 5.06579C5.46696 5.01742 5.3385 4.99437 5.20935 4.99815C4.95769 5.00551 4.71988 5.11404 4.54607 5.29887C4.37241 5.48353 4.27612 5.72985 4.27612 5.98525C4.27612 6.24065 4.37241 6.48697 4.54606 6.67163C4.71988 6.85646 4.95769 6.96499 5.20935 6.97235C5.3385 6.97613 5.46696 6.95308 5.58707 6.90471C5.70716 6.85635 5.81628 6.78373 5.90813 6.69143C5.99996 6.59915 6.07267 6.48906 6.12222 6.36783C6.17177 6.24661 6.19723 6.11653 6.19723 5.98525C6.19723 5.85397 6.17177 5.72389 6.12222 5.60267C6.07267 5.48144 5.99996 5.37135 5.90813 5.27907C5.81628 5.18677 5.70716 5.11415 5.58707 5.06579Z" stroke="black" stroke-width="0.324034"/>
<path d="M7.13037 10.1161L7.13079 10.1161C7.54012 10.1166 7.94442 10.0209 8.3132 9.8361C8.682 9.65125 9.00583 9.38192 9.25993 9.04806L9.26013 9.0478C9.31195 8.98 9.37645 8.92308 9.45013 8.88053C9.52383 8.83798 9.60518 8.8107 9.68953 8.80048C9.77388 8.79026 9.85932 8.79732 9.9409 8.82121L9.89538 8.9767L9.9409 8.82121C10.0225 8.84509 10.0984 8.88526 10.1644 8.93915C10.2303 8.99303 10.285 9.05954 10.3257 9.13471C10.3663 9.20986 10.392 9.2923 10.4017 9.37734C10.4113 9.46237 10.4047 9.54856 10.3821 9.63106C10.3595 9.71347 10.3214 9.79079 10.2696 9.85853M7.13037 10.1161L4.11722 9.75638L3.98822 9.85441C3.98825 9.85445 3.98828 9.85449 3.98831 9.85453C4.36154 10.3456 4.83825 10.743 5.38268 11.0162C5.92713 11.2895 6.52485 11.4313 7.13058 11.4307M7.13037 10.1161C6.72059 10.1166 6.31585 10.0208 5.94673 9.8356C5.59222 9.65775 5.2793 9.40185 5.02995 9.08564L4.9993 9.0454C4.9476 8.97749 4.8832 8.92043 4.80958 8.87774C4.73595 8.83504 4.65464 8.8076 4.5703 8.79722L4.5505 8.95802L7.13037 10.1161ZM10.2696 9.85853L10.1408 9.76035M10.2696 9.85853C10.2696 9.8586 10.2695 9.85867 10.2695 9.85873L10.1408 9.76035M10.2696 9.85853C9.89637 10.3485 9.41998 10.7449 8.87613 11.0174C8.33231 11.2899 7.73543 11.4313 7.13058 11.4307M10.1408 9.76035C9.78223 10.231 9.325 10.6113 8.80355 10.8725C8.2821 11.1338 7.71006 11.2693 7.13058 11.2687M10.1408 9.76035L7.13058 11.2687M7.13058 11.4307C7.13064 11.4307 7.13069 11.4307 7.13075 11.4307L7.13058 11.2687M7.13058 11.4307C7.13052 11.4307 7.13047 11.4307 7.13041 11.4307L7.13058 11.2687M7.13058 0.539155C10.754 0.539155 13.6822 3.57401 13.6822 7.30635C13.6822 11.0381 10.7533 14.0722 7.13061 14.0722L7.13058 0.539155ZM7.13058 0.539155C3.50717 0.539155 0.578977 3.57401 0.578977 7.30635C0.578977 11.038 3.50717 14.0729 7.13058 14.0722V0.539155ZM8.3858 9.98094C8.77702 9.78485 9.12001 9.49941 9.38885 9.14619L7.13058 10.2781C7.56536 10.2786 7.99458 10.177 8.3858 9.98094ZM9.95521 6.36783L9.80524 6.30653L9.95521 6.36783C10.0048 6.24661 10.0302 6.11653 10.0302 5.98525C10.0302 5.85397 10.0048 5.72389 9.95521 5.60267L9.80524 5.66397L9.95521 5.60267C9.90566 5.48144 9.83295 5.37135 9.74111 5.27907C9.64927 5.18677 9.54014 5.11415 9.42005 5.06579C9.29995 5.01742 9.17149 4.99437 9.04234 4.99815C8.79068 5.00551 8.55286 5.11404 8.37905 5.29887C8.2054 5.48353 8.1091 5.72985 8.1091 5.98525C8.1091 6.24065 8.2054 6.48697 8.37905 6.67163C8.55286 6.85646 8.79068 6.96499 9.04234 6.97235C9.17149 6.97613 9.29995 6.95308 9.42005 6.90471C9.54014 6.85635 9.64927 6.78373 9.74111 6.69143C9.83295 6.59915 9.90566 6.48906 9.95521 6.36783ZM5.09661 2.25096C5.7421 1.98091 6.43279 1.84595 7.12877 1.85376C8.51455 1.86929 9.83961 2.44924 10.8159 3.4695C11.7924 4.48994 12.341 5.86846 12.341 7.30602C12.341 8.74358 11.7924 10.1221 10.8159 11.1425C9.83961 12.1628 8.51455 12.7427 7.12877 12.7583C6.43279 12.7661 5.7421 12.6311 5.09661 12.3611C4.45111 12.091 3.86348 11.6912 3.36786 11.1843C2.87223 10.6775 2.47848 10.0738 2.20966 9.40803C1.94084 8.74225 1.80235 8.02778 1.80235 7.30602C1.80235 6.58426 1.94084 5.86979 2.20966 5.20401C2.47848 4.53823 2.87223 3.93453 3.36786 3.42771C3.86348 2.92089 4.45111 2.52102 5.09661 2.25096ZM5.58707 5.06579C5.46696 5.01742 5.3385 4.99437 5.20935 4.99815C4.95769 5.00551 4.71988 5.11404 4.54607 5.29887C4.37241 5.48353 4.27612 5.72985 4.27612 5.98525C4.27612 6.24065 4.37241 6.48697 4.54606 6.67163C4.71988 6.85646 4.95769 6.96499 5.20935 6.97235C5.3385 6.97613 5.46696 6.95308 5.58707 6.90471C5.70716 6.85635 5.81628 6.78373 5.90813 6.69143C5.99996 6.59915 6.07267 6.48906 6.12222 6.36783C6.17177 6.24661 6.19723 6.11653 6.19723 5.98525C6.19723 5.85397 6.17177 5.72389 6.12222 5.60267C6.07267 5.48144 5.99996 5.37135 5.90813 5.27907C5.81628 5.18677 5.70716 5.11415 5.58707 5.06579Z" stroke="#FE3C72" stroke-width="0.324034"/>
</svg>
